<svg width="64" height="40" viewBox="0 0 64 40" fill="none" xmlns="http://www.w3.org/2000/svg">
<path d="M44.0146 10.5538C46.2699 5.30705 50.1577 3.2612 53.3701 4.68564C56.1264 5.90773 57.3664 9.36735 55.8848 12.7267C54.5197 15.8062 50.427 17.7064 46.1016 15.6524C46.0885 18.8853 48.4587 20.7403 51.7979 20.7403C57.3016 20.7403 59.4067 16.3333 60.8213 13.0811C61.1898 12.2343 62.1531 11.8023 62.9893 12.1622L62.9883 12.1612C63.8375 12.5275 64.2246 13.5232 63.8662 14.379C62.4617 17.7251 59.449 24.086 51.7949 24.086C50.8203 24.086 49.8627 23.9645 48.9492 23.7159C46.2905 22.991 44.1812 21.1658 43.3027 18.5343C41.1539 21.4307 38.5898 23.7277 35.7285 24.8292C36.2486 26.8027 36.4233 29.1082 36.1641 31.6935C35.6061 37.3658 32.3411 40.4354 28.8184 39.9503C25.6496 39.5142 23.3888 36.2422 24.2207 32.2101C25.3469 26.7731 28.3622 24.2653 31.2686 22.8155C30.9408 22.375 30.5942 22.022 30.2402 21.7481C29.7756 21.388 29.5047 20.8253 29.5439 20.2315L29.6182 19.0997C29.6853 18.0758 30.2491 17.144 31.1348 16.6573C32.8946 15.6913 34.8086 13.8308 34.8086 10.3077C34.8086 8.86993 34.293 8.15989 33.2295 7.90537C31.3836 7.459 28.9794 9.18242 27.2764 12.8751L27.1807 12.8292L27.2783 12.877C26.3152 14.9284 22.728 24.5324 17.5605 23.3849C15.6901 22.9739 14.5423 21.438 14.4199 19.2784C14.2539 16.3802 15.1873 7.41105 15.2412 6.9288C15.3462 6.00607 16.1739 5.34127 17.0713 5.44248C17.9686 5.54369 18.6034 6.3944 18.5322 7.31259C18.1709 11.9714 17.7967 15.0487 17.7559 17.4317C17.7283 19.0688 18.8267 20.4006 20.4902 18.0421C21.8087 16.1726 23.3714 13.4607 24.3154 11.4513C26.1628 7.44439 29.602 3.58878 33.9814 4.64853C36.7961 5.32426 38.0509 7.82638 38.0889 10.2569C38.1399 13.5434 36.2304 17.6173 32.9131 19.6788C33.5075 20.2608 34.0371 20.9521 34.4844 21.7306C37.3427 20.6455 40.3345 17.5444 42.6582 13.4513C43.1317 12.6177 43.5303 11.7427 43.8916 10.8526C43.9309 10.7531 43.9725 10.6533 44.0146 10.5538ZM32.6123 25.8751C30.4504 26.9542 28.3087 28.6602 27.4287 32.9034C26.9203 35.3683 28.186 36.4885 29.2568 36.6358C30.3073 36.7801 32.4444 36.0469 32.9062 31.3556C33.1204 29.2183 32.9765 27.3709 32.6123 25.8751ZM3.71191 0.016695C4.55896 0.138435 5.15591 0.932801 5.1123 1.80576C4.91 5.8441 4.33618 16.2414 3.3916 25.1495C5.96631 24.6581 10.2823 24.9221 12.3389 25.2042C14.3953 25.4863 16.9944 26.0242 19.2021 27.047V27.046C20.0652 27.4454 20.4165 28.5054 19.958 29.3517C19.5563 30.0924 18.6713 30.4039 17.9072 30.0714C16.6003 29.5013 14.2687 28.7262 10.7598 28.3966C10.1426 28.3387 8.22518 28.2216 6.64746 28.2706C5.06982 28.3196 3.70288 28.4387 2.61133 28.5782C1.14874 28.7665 -0.111526 27.5337 0.0078125 26.0343C0.521603 19.5697 1.68608 4.76772 1.84473 1.5831C1.89424 0.613652 2.74554 -0.121326 3.71191 0.016695ZM52.0654 7.75693C51.1737 7.3626 48.9293 7.4459 47.0166 11.8985H47.0176C46.9083 12.1545 47.0105 11.9081 46.8691 12.2579C50.0087 14.157 52.2628 12.7811 52.8994 11.3448C53.7528 9.40712 52.9482 8.14836 52.0654 7.75693ZM17.5098 9.34601e-05C18.7465 0.000329356 19.1887 1.06261 18.9971 2.01279C18.8172 2.90832 18.036 3.64622 17.125 3.58896H17.126C16.1971 3.52993 15.6015 2.71922 15.6885 1.79697C15.7978 0.619705 16.6827 9.34601e-05 17.5098 9.34601e-05Z" fill="#F54A00"/>
</svg>


